<?xml version="1.0" standalone="no"?><!DOCTYPE svg PUBLIC "-//W3C//DTD SVG 1.1//EN" "http://www.w3.org/Graphics/SVG/1.1/DTD/svg11.dtd"><svg t="1565943137898" class="icon" viewBox="0 0 2505 1024" version="1.1" xmlns="http://www.w3.org/2000/svg" p-id="10119" data-spm-anchor-id="a313x.7781069.0.i9" xmlns:xlink="http://www.w3.org/1999/xlink" width="489.2578125" height="200"><defs><style type="text/css"></style></defs><path d="M1746.651429 1024H173.104762c-95.573333 0-170.666667-75.093333-170.666667-170.666667V170.666667c0-95.573333 75.093333-170.666667 170.666667-170.666667h1573.546667c85.333333 0 194.56 51.2 252.586666 116.053333l341.333334 395.946667-344.746667 395.946667c-54.613333 64.853333-163.84 116.053333-249.173333 116.053333zM173.104762 68.266667C115.078095 68.266667 70.704762 112.64 70.704762 170.666667v682.666666c0 58.026667 44.373333 102.4 102.4 102.4h1573.546667c64.853333 0 157.013333-40.96 201.386666-92.16L2248.411429 512 1944.624762 160.426667C1903.664762 109.226667 1811.504762 68.266667 1746.651429 68.266667H173.104762z" p-id="10120" fill="#999999"></path></svg>