<?xml version="1.0" standalone="no"?><!DOCTYPE svg PUBLIC "-//W3C//DTD SVG 1.1//EN" "http://www.w3.org/Graphics/SVG/1.1/DTD/svg11.dtd"><svg t="1565942073313" class="icon" viewBox="0 0 1024 1024" version="1.1" xmlns="http://www.w3.org/2000/svg" p-id="4950" xmlns:xlink="http://www.w3.org/1999/xlink" width="200" height="200"><defs><style type="text/css"></style></defs><path d="M510.577778 278.528c-267.064889 0-483.555556 237.511111-483.555556 237.511111s216.490667 237.511111 483.555556 237.511111 483.555556-237.511111 483.555556-237.511111S777.642667 278.528 510.577778 278.528zM510.577778 708.039111c-106.040889 0-192-85.959111-192-192s85.959111-192 192-192c106.040889 0 192 85.959111 192 192S616.618667 708.039111 510.577778 708.039111z" p-id="4951" fill="#999999"></path><path d="M510.577778 516.039111m-115.2 0a4.05 4.05 0 1 0 230.4 0 4.05 4.05 0 1 0-230.4 0Z" p-id="4952" fill="#999999"></path></svg>