<?xml version="1.0" standalone="no"?><!DOCTYPE svg PUBLIC "-//W3C//DTD SVG 1.1//EN" "http://www.w3.org/Graphics/SVG/1.1/DTD/svg11.dtd"><svg t="1565939199181" class="icon" viewBox="0 0 1024 1024" version="1.1" xmlns="http://www.w3.org/2000/svg" p-id="1956" xmlns:xlink="http://www.w3.org/1999/xlink" width="200" height="200"><defs><style type="text/css"></style></defs><path d="M252 223c-19.3 0-35-14.7-35-32.8V32.8C217 14.7 232.7 0 252 0s35 14.7 35 32.8v157.3c0 18.2-15.7 32.9-35 32.9z m555-32.8V32.8C807 14.7 791.3 0 772 0s-35 14.7-35 32.8v157.3c0 18.1 15.7 32.8 35 32.8s35-14.6 35-32.7zM225 471c-41.4 0-75 33.6-75 75s33.6 75 75 75 75-33.6 75-75c0-41.5-33.6-75-75-75z m287 0c-41.4 0-75 33.6-75 75s33.6 75 75 75 75-33.6 75-75c0-41.5-33.6-75-75-75z m287 0c-41.4 0-75 33.6-75 75s33.6 75 75 75 75-33.6 75-75c0-41.5-33.6-75-75-75zM225 740c-41.4 0-75 33.6-75 75s33.6 75 75 75 75-33.6 75-75c0-41.5-33.6-75-75-75z m287 0c-41.4 0-75 33.6-75 75s33.6 75 75 75 75-33.6 75-75c0-41.5-33.6-75-75-75z m512-556v740c0 55.2-44.8 100-100 100H100C44.8 1024 0 979.2 0 924V184C0 128.8 44.8 84 100 84h90v106.2c0 33 27.8 59.8 62 59.8s62-26.8 62-59.8V84h396v106.2c0 33 27.8 59.8 62 59.8s62-26.8 62-59.8V84h90c55.2 0 100 44.8 100 100z m-55 207.3H55V924c0 24.8 20.2 45 45 45h824c24.8 0 45-20.2 45-45V391.3z" p-id="1957" fill="#999999"></path></svg>