<?xml version="1.0" standalone="no"?><!DOCTYPE svg PUBLIC "-//W3C//DTD SVG 1.1//EN" "http://www.w3.org/Graphics/SVG/1.1/DTD/svg11.dtd"><svg t="1565941674640" class="icon" viewBox="0 0 1024 1024" version="1.1" xmlns="http://www.w3.org/2000/svg" p-id="4600" xmlns:xlink="http://www.w3.org/1999/xlink" width="200" height="200"><defs><style type="text/css"></style></defs><path d="M512 615.277714a32.621714 32.621714 0 0 1-16.457143-4.388571l-479.085714-275.748572a31.232 31.232 0 0 1-15.798857-26.989714c0-10.971429 5.851429-21.211429 15.798857-26.843428L495.542857 5.266286a33.353143 33.353143 0 0 1 32.914286 0l479.085714 275.894857a31.232 31.232 0 0 1 15.798857 26.916571c0 10.971429-5.851429 21.211429-15.798857 26.843429l-479.085714 276.041143A33.792 33.792 0 0 1 512 615.277714zM95.963429 308.150857L512 547.620571l416.036571-239.469714L512 68.608 95.963429 308.150857z" p-id="4601" fill="#999999"></path><path d="M512 819.2a32.621714 32.621714 0 0 1-16.457143-4.388571L16.457143 538.916571a30.72 30.72 0 0 1-11.264-42.861714 32.914286 32.914286 0 0 1 44.105143-10.971428L512 751.542857l462.701714-266.459428a32.914286 32.914286 0 0 1 44.105143 10.971428 30.72 30.72 0 0 1-11.264 42.861714l-479.085714 275.894858A32.621714 32.621714 0 0 1 512 819.2z" p-id="4602" fill="#999999"></path><path d="M512 1023.049143a32.621714 32.621714 0 0 1-16.457143-4.388572l-479.085714-275.821714A30.72 30.72 0 0 1 5.12 699.977143a32.914286 32.914286 0 0 1 44.105143-10.971429L512 955.538286l462.701714-266.386286a32.841143 32.841143 0 0 1 44.105143 10.898286 30.72 30.72 0 0 1-11.264 42.861714l-479.085714 275.894857a33.792 33.792 0 0 1-16.457143 4.315429z" p-id="4603" fill="#999999"></path></svg>