<?xml version="1.0" standalone="no"?><!DOCTYPE svg PUBLIC "-//W3C//DTD SVG 1.1//EN" "http://www.w3.org/Graphics/SVG/1.1/DTD/svg11.dtd"><svg t="1565941620961" class="icon" viewBox="0 0 1024 1024" version="1.1" xmlns="http://www.w3.org/2000/svg" p-id="3604" xmlns:xlink="http://www.w3.org/1999/xlink" width="200" height="200"><defs><style type="text/css"></style></defs><path d="M384 960c0-17.7 14.3-32 32-32h544c17.7 0 32 14.3 32 32s-14.3 32-32 32H416c-17.7 0-32-14.3-32-32zM982.5 222.8L801.2 41.5c-12.7-12.7-33.2-12.7-45.9 0l-123 123.1 227.1 227.1 123.1-123.1c12.7-12.6 12.7-33.2 0-45.8zM599.8 197L41.5 755.4c-6.1 6.1-9.5 14.3-9.5 22.9v181.2c0 17.9 14.5 32.4 32.4 32.4h181.2c8.6 0 16.9-3.4 22.9-9.5L827 424.2 599.8 197z" fill="#999999" p-id="3605"></path></svg>