<?xml version="1.0" standalone="no"?><!DOCTYPE svg PUBLIC "-//W3C//DTD SVG 1.1//EN" "http://www.w3.org/Graphics/SVG/1.1/DTD/svg11.dtd"><svg t="1566802308978" class="icon" viewBox="0 0 1024 1024" version="1.1" xmlns="http://www.w3.org/2000/svg" p-id="1560" xmlns:xlink="http://www.w3.org/1999/xlink" width="200" height="200"><defs><style type="text/css"></style></defs><path d="M123.420672 668.022784l344.549376 229.699584 0-205.129728-190.844928-127.420416zm-35.426304-82.280448l110.278656-73.709568-110.278656-73.709568 0 147.419136zm467.970048 311.980032l344.549376-229.699584-153.704448-102.85056-190.844928 127.420416 0 205.129728zm-43.997184-281.696256l155.418624-103.993344-155.418624-103.993344-155.418624 103.993344zm-234.842112-157.1328l190.844928-127.420416 0-205.129728-344.549376 229.699584zm548.53632 53.139456l110.278656 73.709568 0-147.419136zm-78.852096-53.139456l153.704448-102.85056-344.549376-229.699584 0 205.129728zm277.12512-102.85056l0 311.980032q0 23.427072-19.427328 36.569088l-467.970048 311.980032q-11.999232 7.428096-24.569856 7.428096t-24.569856-7.428096l-467.970048-311.980032q-19.427328-13.142016-19.427328-36.569088l0-311.980032q0-23.427072 19.427328-36.569088l467.970048-311.980032q11.999232-7.428096 24.569856-7.428096t24.569856 7.428096l467.970048 311.980032q19.427328 13.142016 19.427328 36.569088z" p-id="1561" fill="#999999"></path></svg>