<?xml version="1.0" standalone="no"?><!DOCTYPE svg PUBLIC "-//W3C//DTD SVG 1.1//EN" "http://www.w3.org/Graphics/SVG/1.1/DTD/svg11.dtd"><svg t="1565854656972" class="icon" viewBox="0 0 1024 1024" version="1.1" xmlns="http://www.w3.org/2000/svg" p-id="2883" xmlns:xlink="http://www.w3.org/1999/xlink" width="200" height="200"><defs><style type="text/css"></style></defs><path d="M512.895231 1023.998464c-207.400649 0.511999-394.367408-124.415813-473.72729-315.903526-79.359881-191.487713-35.880906-411.688342 110.591834-558.120123 146.47274-146.43178 367.185369-190.463714 558.248123-110.591834 191.446753 79.395721 316.174886 266.342 315.990566 473.59929C1023.998464 795.134807 795.595607 1023.486465 512.895231 1023.998464z m96.767855-736.807855c-9.727985 2.047997-19.455971 5.119992-28.671957 8.703987a127.318849 127.318849 0 0 0-72.703891 86.52787c-5.119992 19.96797-5.119992 40.959939 0 60.41591-19.455971 0-38.911942-2.559996-57.343914-7.679989a376.744395 376.744395 0 0 1-156.712725-76.287885 236.159646 236.159646 0 0 1-37.934023-37.375944 104.488803 104.488803 0 0 1-11.775983-13.82398 143.231785 143.231785 0 0 0-13.823979 33.279951 133.3758 133.3758 0 0 0 28.671957 117.247824c6.65599 8.191988 16.895975 13.31198 23.551965 20.479969-5.836791 1.018878-11.837422 0.491519-17.407974-1.535998a126.038851 126.038851 0 0 1-27.13596-7.679988l-13.823979-5.119993a123.560775 123.560775 0 0 0 60.41591 110.591835c12.287982 9.215986 26.62396 14.847978 41.983937 16.895974-8.191988 7.167989-44.543933 4.095994-57.343914 2.559996 12.799981 38.911942 43.007935 69.119896 81.453957 82.431877 12.287982 4.607993 25.087962 6.65599 37.887944 6.65599a168.534787 168.534787 0 0 1-34.815948 22.527966 277.160544 277.160544 0 0 1-76.799885 28.159958c-11.775982 2.559996-24.063964 2.047997-37.375944 4.095994-13.670379 1.023998-27.407319 0.506879-40.959938-1.535998l11.263983 6.65599c11.775982 7.167989 23.551965 13.31198 36.351945 18.431972 24.575963 10.239985 49.663926 18.431972 75.263887 24.575963 60.415909 12.799981 123.432775 10.751984 182.824686-6.14399 134.184759-41.983937 219.176631-140.28779 251.473543-285.183573 5.119992-27.135959 7.167989-55.295917 6.143991-82.943875l20.479969-16.895975a214.824638 214.824638 0 0 0 43.519935-50.175925 255.574657 255.574657 0 0 1-72.703891 19.96797c5.119992-2.559996 9.727985-6.143991 14.335978-10.239984 19.455971-15.871976 33.791949-36.863945 41.471938-60.41591l-15.871976 8.703987a207.958728 207.958728 0 0 1-66.5599 22.015967 129.279806 129.279806 0 0 0-100.904809-40.447939v0.511999h-0.552959l-15.871976 2.047997z" fill="#2FB0EC" p-id="2884"></path></svg>