<?xml version="1.0" standalone="no"?><!DOCTYPE svg PUBLIC "-//W3C//DTD SVG 1.1//EN" "http://www.w3.org/Graphics/SVG/1.1/DTD/svg11.dtd"><svg t="1565860042258" class="icon" viewBox="0 0 1024 1024" version="1.1" xmlns="http://www.w3.org/2000/svg" p-id="1962" xmlns:xlink="http://www.w3.org/1999/xlink" width="200" height="200"><defs><style type="text/css"></style></defs><path d="M183.940741 39.253333h655.17037c80.023704 0 145.066667 64.474074 145.635556 144.497778v657.256296c-0.568889 80.023704-65.611852 144.687407-145.635556 144.497778H183.940741c-80.023704 0-145.066667-64.474074-145.635556-144.497778V183.751111c0.568889-80.023704 65.611852-144.687407 145.635556-144.497778z m0 0" fill="#0084ff" p-id="1963"></path><path d="M262.826667 511.620741h102.589629c2.275556-34.322963 0-108.088889 0-160.237037h-50.062222c-14.032593 30.72-27.117037 55.751111-52.906667 65.801481-11.946667 5.30963-25.6 6.447407-38.305185 3.413334 11.377778 1.327407 50.251852-139.188148 69.214815-164.977778 13.084444-16.118519 32.426667-25.78963 53.096296-26.548148-3.792593 27.496296-11.377778 54.423704-22.755555 79.834074h189.819259v42.666666h-102.968889c0 51.579259 1.896296 125.345185 0 160.237037h119.087408l-0.568889 43.045926-120.604445-0.568889c-1.137778 9.291852-2.085926 31.857778-3.223703 40.580741 0 0 63.146667 65.991111 96.711111 108.847408v74.145185c-35.84-47.597037-110.364444-136.722963-110.364445-136.722963-44.942222 114.157037-107.70963 155.306667-107.709629 155.306666h-69.214815s136.722963-149.807407 147.152592-241.208888h-142.98074l43.994074-43.614815z m289.185185-205.558519h237.985185v430.26963l-96.900741 0.379259-72.059259 59.164445-29.202963-59.543704h-39.822222V306.062222z m193.991111 41.339259h-149.807407v338.29926h8.533333l25.6 53.096296 65.991111-53.096296h49.682963V347.401481z m0 0" fill="#FFFFFF" p-id="1964"></path></svg>